<svg width="48" height="48" xmlns="http://www.w3.org/2000/svg">

 <g>
  <title>background</title>
  <rect fill="none" id="canvas_background" height="402" width="582" y="-1" x="-1"/>
 </g>
 <g>
  <title>Layer 1</title>
  <path stroke="null" fill="#4a2359" id="svg_1" d="m37.93232,10.065348c-3.563818,-3.57615 -8.484107,-5.795829 -13.934652,-5.795829c-10.90109,0 -19.705817,8.82939 -19.705817,19.73048s8.804727,19.73048 19.705817,19.73048c9.187005,0 16.881892,-6.289091 19.064577,-14.79786l-5.129925,0c-2.034706,5.746502 -7.485251,9.86524 -13.934652,9.86524c-8.175818,0 -14.79786,-6.622043 -14.79786,-14.79786s6.622043,-14.79786 14.79786,-14.79786c4.081743,0 7.744214,1.701754 10.42016,4.3777l-7.95385,7.95385l17.26417,0l0,-17.26417l-5.795829,5.795829z"/>
  <path id="svg_2" fill="none" d="m24.931999,3.029121l48,0l0,48l-48,0l0,-48z"/>
 </g>
</svg>