<svg width="4335" height="4335" xmlns="http://www.w3.org/2000/svg">

 <g>
  <title>background</title>
  <rect fill="none" id="canvas_background" height="402" width="582" y="-1" x="-1"/>
 </g>
 <g>
  <title>Layer 1</title>
  <path fill="none" id="svg_1" d="m736,18l2884,0c387,0 704,317 704,704l0,2884c0,387 -317,704 -704,704l-2884,0c-387,0 -704,-317 -704,-704l0,-2884c0,-387 317,-704 704,-704z" class="fil0"/>
  <path fill-rule="nonzero" fill="#ffffff" id="svg_2" d="m2960,2542c0,97 -18,182 -55,256c-37,73 -86,134 -148,182c-74,57 -155,99 -242,123c-88,25 -200,37 -336,37l-783,0l0,-1954l691,0c144,0 253,5 326,17c74,11 144,34 209,69c70,38 122,88 157,151c35,63 52,136 52,218c0,95 -24,180 -72,254c-47,74 -114,129 -198,164l0,11c121,26 217,77 289,155c73,78 109,184 109,317l1,0zm-630,-804c0,-31 -8,-64 -24,-97c-16,-33 -41,-57 -76,-72c-32,-14 -70,-22 -115,-23c-44,-1 -110,-2 -198,-2l-34,0l0,414l62,0c84,0 142,-1 176,-3c34,-2 68,-11 104,-28c39,-18 66,-43 81,-76c15,-32 22,-70 22,-113l2,0zm124,796c0,-61 -12,-107 -37,-142c-25,-34 -61,-60 -110,-77c-30,-12 -71,-18 -123,-19c-52,-1 -122,-2 -210,-2l-90,0l0,489l26,0c128,0 216,-1 265,-3c49,-2 99,-13 150,-35c44,-19 77,-47 98,-85c21,-37 31,-79 31,-126z" class="fil1"/>
 </g>
</svg>